<svg xmlns="http://www.w3.org/2000/svg" xmlns:xlink="http://www.w3.org/1999/xlink" width="200.703" height="77.324" viewBox="0 0 200.703 77.324"><defs><style>.a{fill:url(#a);}.b{fill:none;stroke:#13aa23;stroke-miterlimit:10;stroke-width:2px;}</style><linearGradient id="a" x1="0.5" y1="1.218" x2="0.5" gradientUnits="objectBoundingBox"><stop offset="0" stop-color="#dbffdf" stop-opacity="0"/><stop offset="1" stop-color="#dbffdf"/></linearGradient></defs><g transform="translate(-542.907 -298.538)"><path class="a" d="M0,75.492V6.1L8.281,0,18.694,9.241,27.927,0,39.243,9.241,44.408,6.1,55.075,27.726,66.06,13.347V6.1l7.526,7.244H85.458L99.513,59.587l15.143-14.223h13.6l4.994-7.618,7.016,17.239,12.693,4.6L169.3,37.746l7.7,7.618,22.572,14.223v15.9S0,79.614,0,75.492Z" transform="translate(543.5 298.538)"/><path class="b" d="M0,6.1,8.281,0,18.694,9.235,27.927,0,39.243,9.235,44.408,6.1,55.075,27.706,66.06,13.337V6.1l7.526,7.238H85.458L99.513,59.544l15.143-14.213h13.6l4.994-7.613,7.016,17.226,12.693,4.6L169.3,37.718l7.7,7.613,22.572,14.213" transform="translate(543.5 300.5)"/></g></svg>