<svg xmlns="http://www.w3.org/2000/svg" width="27" height="25" viewBox="0 0 27 25"><defs><style>.a{fill-rule:evenodd;}</style></defs><path class="a" d="M24.318,4.5H4.682A1.239,1.239,0,0,0,3.455,5.75v17.5A1.239,1.239,0,0,0,4.682,24.5H24.318a1.239,1.239,0,0,0,1.227-1.25V5.75A1.239,1.239,0,0,0,24.318,4.5ZM4.682,2A3.716,3.716,0,0,0,1,5.75v17.5A3.716,3.716,0,0,0,4.682,27H24.318A3.716,3.716,0,0,0,28,23.25V5.75A3.716,3.716,0,0,0,24.318,2ZM7.136,8.25H9.591v2.5H7.136Zm6.136,0a1.25,1.25,0,0,0,0,2.5h7.364a1.25,1.25,0,0,0,0-2.5Zm-3.682,5H7.136v2.5H9.591Zm2.455,1.25a1.239,1.239,0,0,1,1.227-1.25h7.364a1.25,1.25,0,0,1,0,2.5H13.273A1.239,1.239,0,0,1,12.045,14.5ZM9.591,18.25H7.136v2.5H9.591Zm2.455,1.25a1.239,1.239,0,0,1,1.227-1.25h7.364a1.25,1.25,0,0,1,0,2.5H13.273A1.239,1.239,0,0,1,12.045,19.5Z" transform="translate(-1 -2)"/></svg>