<svg xmlns="http://www.w3.org/2000/svg" width="22" height="19" viewBox="0 0 22 19"><defs><style>.a,.b{fill:#ff6d6d;}.b{fill-rule:evenodd;}</style></defs><path class="a" d="M5.459,2,1,6.015,2.338,7.5,6.8,3.486Z" transform="translate(-1 -2)"/><path class="a" d="M11,8h2v4h3v2H11Z" transform="translate(-1 -2)"/><path class="b" d="M3,12a9,9,0,1,1,9,9A9,9,0,0,1,3,12Zm2,0a7,7,0,1,1,7,7A7,7,0,0,1,5,12Z" transform="translate(-1 -2)"/><path class="a" d="M18.541,2,23,6.015,21.662,7.5,17.2,3.486Z" transform="translate(-1 -2)"/></svg>