<svg xmlns="http://www.w3.org/2000/svg" width="25.005" height="25" viewBox="0 0 25.005 25"><defs><style>.a{fill:#a6a6a6;}</style></defs><path class="a" d="M7.157,2.433c0-.768-.623-.833-1.389-.833s-1.389.065-1.389.833V14.1H7.157V2.433ZM4.378,25.767c0,.766.621.833,1.389.833s1.389-.068,1.389-.833V21.044H4.378ZM9.1,15.489H2.432c-.768,0-.832.622-.832,1.389v1.389c0,.768.064,1.389.832,1.389H9.1c.764,0,.834-.621.834-1.389V16.878C9.935,16.111,9.866,15.489,9.1,15.489Zm16.671,1.389H19.1c-.767,0-.831.622-.831,1.389v1.389c0,.768.064,1.389.832,1.389h6.67c.764,0,.834-.621.834-1.389V18.267c0-.766-.069-1.389-.835-1.389Zm-7.5-6.944c0-.766-.069-1.389-.835-1.389H10.767c-.768,0-.832.622-.832,1.389v1.389c0,.768.064,1.389.832,1.389h6.67c.764,0,.834-.621.834-1.389Zm-2.778-7.5c0-.768-.623-.833-1.389-.833s-1.389.065-1.389.833V7.156h2.778ZM12.714,25.767c0,.766.621.833,1.389.833s1.389-.068,1.389-.833V14.1H12.714V25.767ZM23.828,2.433c0-.768-.623-.833-1.389-.833s-1.389.065-1.389.833V15.489h2.778V2.433ZM21.049,25.767c0,.766.621.833,1.389.833s1.389-.068,1.389-.833V22.433H21.049Z" transform="translate(-1.6 -1.6)"/></svg>