<svg xmlns="http://www.w3.org/2000/svg" xmlns:xlink="http://www.w3.org/1999/xlink" width="25" height="25" viewBox="0 0 25 25"><defs><style>.a{fill:#049fd8;}.b{clip-path:url(#a);}</style><clipPath id="a"><rect class="a" width="25" height="25" transform="translate(508.678 198.678)"/></clipPath></defs><g class="b" transform="translate(-508.678 -198.678)"><path class="a" d="M12.976,14.17h2.992a1.2,1.2,0,0,0,0-2.394h-1.2v-.6a1.2,1.2,0,0,0-2.394,0v.658a2.992,2.992,0,0,0,.6,5.925h1.2a.6.6,0,0,1,0,1.2H11.181a1.2,1.2,0,1,0,0,2.394h1.2v.6a1.2,1.2,0,1,0,2.394,0v-.658a2.992,2.992,0,0,0-.6-5.925h-1.2a.6.6,0,1,1,0-1.2Zm13.765,1.8H23.15V5.193a1.2,1.2,0,0,0-1.8-1.041L17.764,6.21,14.173,4.152a1.2,1.2,0,0,0-1.2,0L9.385,6.21,5.795,4.152A1.2,1.2,0,0,0,4,5.193V24.344A3.591,3.591,0,0,0,7.59,27.934H24.347a3.591,3.591,0,0,0,3.591-3.591V17.162A1.2,1.2,0,0,0,26.741,15.965ZM7.59,25.541a1.2,1.2,0,0,1-1.2-1.2V7.264L8.787,8.628a1.293,1.293,0,0,0,1.2,0l3.591-2.059,3.591,2.059a1.293,1.293,0,0,0,1.2,0l2.394-1.364v17.08a3.591,3.591,0,0,0,.215,1.2Zm17.954-1.2a1.2,1.2,0,1,1-2.394,0V18.359h2.394Z" transform="translate(505.051 195.057)"/></g></svg>