<svg xmlns="http://www.w3.org/2000/svg" xmlns:xlink="http://www.w3.org/1999/xlink" width="27" height="27" viewBox="0 0 27 27"><defs><style>.a{fill:#292929;}.b{clip-path:url(#a);}</style><clipPath id="a"><rect class="a" width="27" height="27" transform="translate(509 199)"/></clipPath></defs><g class="b" transform="translate(-509 -199)"><path class="a" d="M14.122,15.469H17.5a1.35,1.35,0,1,0,0-2.7h-1.35V12.1a1.35,1.35,0,1,0-2.7,0v.742a3.374,3.374,0,0,0,.675,6.681h1.35a.675.675,0,0,1,0,1.35H12.1a1.35,1.35,0,1,0,0,2.7h1.35v.675a1.35,1.35,0,0,0,2.7,0V23.5a3.374,3.374,0,0,0-.675-6.681h-1.35a.675.675,0,0,1,0-1.35Zm15.522,2.025H25.595V5.346A1.35,1.35,0,0,0,23.57,4.172L19.521,6.494,15.472,4.172a1.35,1.35,0,0,0-1.35,0L10.073,6.494,6.024,4.172A1.35,1.35,0,0,0,4,5.346v21.6a4.049,4.049,0,0,0,4.049,4.049h18.9a4.049,4.049,0,0,0,4.049-4.049v-8.1A1.35,1.35,0,0,0,29.644,17.494Zm-21.6,10.8a1.35,1.35,0,0,1-1.35-1.35V7.681L9.4,9.22a1.458,1.458,0,0,0,1.35,0L14.8,6.9,18.846,9.22a1.458,1.458,0,0,0,1.35,0l2.7-1.539V26.942a4.049,4.049,0,0,0,.243,1.35Zm20.246-1.35a1.35,1.35,0,1,1-2.7,0V20.193h2.7Z" transform="translate(505.004 195.009)"/></g></svg>