<svg xmlns="http://www.w3.org/2000/svg" width="18" height="18" viewBox="0 0 18 18"><defs><style>.a,.b{fill:#f1aa06;}.b{fill-rule:evenodd;}</style></defs><path class="a" d="M16.192,7.707a1,1,0,0,0-1.414,0L7.707,14.778a1,1,0,0,0,1.414,1.414l7.071-7.071A1,1,0,0,0,16.192,7.707Z" transform="translate(-3 -3)"/><path class="b" d="M3,6A3,3,0,0,1,6,3H18a3,3,0,0,1,3,3V18a3,3,0,0,1-3,3H6a3,3,0,0,1-3-3ZM6,5H18a1,1,0,0,1,1,1V18a1,1,0,0,1-1,1H6a1,1,0,0,1-1-1V6A1,1,0,0,1,6,5Z" transform="translate(-3 -3)"/></svg>