<svg xmlns="http://www.w3.org/2000/svg" xmlns:xlink="http://www.w3.org/1999/xlink" width="25" height="25" viewBox="0 0 25 25"><defs><style>.a,.c{fill:#049fd8;}.a{stroke:#707070;}.b{clip-path:url(#a);}</style><clipPath id="a"><rect class="a" width="25" height="25" transform="translate(528 213)"/></clipPath></defs><g class="b" transform="translate(-528 -213)"><path class="c" d="M26.187,21.087l-3.025-3.025a1.25,1.25,0,0,0-1.775,0l-4.475,4.475a1.25,1.25,0,0,0-.363.887V26.45A1.25,1.25,0,0,0,17.8,27.7h3.025a1.25,1.25,0,0,0,.887-.362l4.475-4.475a1.25,1.25,0,0,0,0-1.775ZM20.3,25.2H19.05V23.95l3.225-3.225,1.25,1.25Zm-7.5,0h-5a1.25,1.25,0,0,1-1.25-1.25V6.45A1.25,1.25,0,0,1,7.8,5.2h6.25V8.95A3.75,3.75,0,0,0,17.8,12.7h3.75v1.25a1.25,1.25,0,1,0,2.5,0V11.375a1.637,1.637,0,0,0-.075-.337v-.113a1.338,1.338,0,0,0-.237-.35h0l-7.5-7.5h0a1.338,1.338,0,0,0-.35-.237.4.4,0,0,0-.113,0l-.4-.137H7.8A3.75,3.75,0,0,0,4.05,6.45v17.5A3.75,3.75,0,0,0,7.8,27.7h5a1.25,1.25,0,1,0,0-2.5ZM16.55,6.962,19.787,10.2H17.8a1.25,1.25,0,0,1-1.25-1.25ZM10.3,17.7h7.5a1.25,1.25,0,1,0,0-2.5H10.3a1.25,1.25,0,0,0,0,2.5Zm0-5h1.25a1.25,1.25,0,1,0,0-2.5H10.3a1.25,1.25,0,1,0,0,2.5Zm2.5,7.5H10.3a1.25,1.25,0,1,0,0,2.5h2.5a1.25,1.25,0,1,0,0-2.5Z" transform="translate(525.196 210.3)"/></g></svg>